{"title":"200 M.P.H 2011 DVDRiP AC3 XViD - U.S.M","uid":6770999,"size":1493927369,"categoryP":"video","categoryS":"movies","magnet":"?xt=urn:btih:d20748024955a313110ea1015d555bc792f22f2f&amp;dn=200+M.P.H+2011+DVDRiP+AC3+XViD+-+U.S.M&amp;tr=udp%3A%2F%2Ftracker.openbittorrent.com%3A80&amp;tr=udp%3A%2F%2Fopen.demonii.com%3A1337&amp;tr=udp%3A%2F%2Ftracker.coppersurfer.tk%3A6969&amp;tr=udp%3A%2F%2Fexodus.desync.com%3A6969","seeders":0,"leechers":1,"uploader":"sceneline","files":104,"time":1319572332,"description":"- &lt;a href=&quot;\nhttp://www.Speed.Cd&quot; rel=&quot;nofollow&quot; target=&quot;_NEW&quot;&gt;\nhttp://www.Speed.Cd&lt;/a&gt;      fast  and The Hottest Private Tracker on the net\n\nPlease Seed back to make the speed Faster!!!\n\n------------------nfo--------------------------\n-UUUUUUUU     UUUUUUUU           SSSSSSSSSSSSSSS         MMMMMMMM               MMMMMMMM     \nU::::::U     U::::::U         SS:::::::::::::::S        M:::::::M             M:::::::M     \nU::::::U     U::::::U        S:::::SSSSSS::::::S        M::::::::M           M::::::::M     \nUU:::::U     U:::::UU        S:::::S     SSSSSSS        M:::::::::M         M:::::::::M     \n U:::::U     U:::::U         S:::::S                    M::::::::::M       M::::::::::M     \n U:::::D     D:::::U         S:::::S                    M:::::::::::M     M:::::::::::M     \n U:::::D     D:::::U          S::::SSSS                 M:::::::M::::M   M::::M:::::::M     \n U:::::D     D:::::U           SS::::::SSSSS            M::::::M M::::M M::::M M::::::M     \n U:::::D     D:::::U             SSS::::::::SS          M::::::M  M::::M::::M  M::::::M     \n U:::::D     D:::::U                SSSSSS::::S         M::::::M   M:::::::M   M::::::M     \n U:::::D     D:::::U                     S:::::S        M::::::M    M:::::M    M::::::M     \n U::::::U   U::::::U                     S:::::S        M::::::M     MMMMM     M::::::M     \n U:::::::UUU:::::::U         SSSSSSS     S:::::S        M::::::M               M::::::M     \n  UU:::::::::::::UU   ...... S::::::SSSSSS:::::S ...... M::::::M               M::::::M     \n    UU:::::::::UU     .::::. S:::::::::::::::SS  .::::. M::::::M               M::::::M     \n      UUUUUUUUU       ......  SSSSSSSSSSSSSSS    ...... MMMMMMMM               MMMMMMMM   \n\n\n\n                          200 M.P.H 2011 DVDRiP AC3 XViD - U.S.M\n\n\nSOURCES:\n\n20mph.2011.DVD5\n\nIMDB:\n &lt;a href=&quot;\nhttp://www.imdb.com/title/tt1823051/&quot; rel=&quot;nofollow&quot; target=&quot;_NEW&quot;&gt;\nhttp://www.imdb.com/title/tt1823051/&lt;/a&gt;\n\nVideo\nID                               : 0\nFormat                           : MPEG-4 Visual\nFormat profile                   : Advanced Simple@L5\nFormat settings, BVOP            : 2\nFormat settings, QPel            : No\nFormat settings, GMC             : No warppoints\nFormat settings, Matrix          : Default (MPEG)\nMuxing mode                      : Packed bitstream\nCodec ID                         : XVID\nCodec ID/Hint                    : XviD\nDuration                         : 1h 28mn\nBit rate                         : 2 026 Kbps\nWidth                            : 720 pixels\nHeight                           : 400 pixels\nDisplay aspect ratio             : 16:9\nFrame rate                       : 25.000 fps\nColor space                      : YUV\nChroma subsampling               : 4:2:0\nBit depth                        : 8 bits\nScan type                        : Progressive\nCompression mode                 : Lossy\nBits/(Pixel*Frame)               : 0.281\nStream size                      : 1.25 GiB (91%)\nWriting library                  : XviD 64\n\nAudio\nID                               : 1\nFormat                           : AC-3\nFormat/Info                      : Audio Coding 3\nMode extension                   : CM (complete main)\nCodec ID                         : 2000\nDuration                         : 1h 28mn\nBit rate mode                    : Constant\nBit rate                         : 192 Kbps\nChannel(s)                       : 2 channels\nChannel positions                : Front: L R\nSampling rate                    : 48.0 KHz\nBit depth                        : 16 bits\nCompression mode                 : Lossy\nStream size                      : 121 MiB (9%)\nAlignment                        : Aligned on interleaves\nInterleave, duration             : 40 ms (1.00 video frame)\nInterleave, preload duration     : 512 ms\n\n\n\nWORKDONE:\n\nSimple script made to crop,resize,sharpen the encode,nothing else done.\nStripped english ac3 track off the dvd and remuxed to the encode.\nCheck sample for Q.\n\nSCREENIES:\n\n[IMG]http://i.imgur.com/g9tLm.png[/IMG]\n[IMG]http://i.imgur.com/GwqDY.png[/IMG]\n[IMG]http://i.imgur.com/8GyQa.png[/IMG]\n[IMG]http://i.imgur.com/G6h55.png[/IMG]","torrent":{"xt":"urn:btih:d20748024955a313110ea1015d555bc792f22f2f","amp;dn":"200+M.P.H+2011+DVDRiP+AC3+XViD+-+U.S.M","amp;tr":["udp%3A%2F%2Ftracker.openbittorrent.com%3A80","udp%3A%2F%2Fopen.demonii.com%3A1337","udp%3A%2F%2Ftracker.coppersurfer.tk%3A6969","udp%3A%2F%2Fexodus.desync.com%3A6969"],"infoHash":"d20748024955a313110ea1015d555bc792f22f2f","infoHashBuffer":{"type":"Buffer","data":[210,7,72,2,73,85,163,19,17,14,161,1,93,85,91,199,146,242,47,47]},"announce":[],"urlList":[]}}